<?xml version="1.0" encoding="UTF-8" standalone="no"?>
<svg
   xmlns:dc="http://purl.org/dc/elements/1.1/"
   xmlns:cc="http://creativecommons.org/ns#"
   xmlns:rdf="http://www.w3.org/1999/02/22-rdf-syntax-ns#"
   xmlns:svg="http://www.w3.org/2000/svg"
   xmlns="http://www.w3.org/2000/svg"
   xmlns:xlink="http://www.w3.org/1999/xlink"
   xmlns:sodipodi="http://sodipodi.sourceforge.net/DTD/sodipodi-0.dtd"
   xmlns:inkscape="http://www.inkscape.org/namespaces/inkscape"
   version="1.1"
   width="35.928696"
   height="39.430897"
   viewBox="0 0 359.28696 394.30896"
   id="svg5857"
   sodipodi:docname="germany.svg"
   inkscape:version="0.92.3 (2405546, 2018-03-11)">
  <metadata
     id="metadata5863">
    <rdf:RDF>
      <cc:Work
         rdf:about="">
        <dc:format>image/svg+xml</dc:format>
        <dc:type
           rdf:resource="http://purl.org/dc/dcmitype/StillImage" />
        <dc:title>Bundeswappen Deutschlands</dc:title>
      </cc:Work>
    </rdf:RDF>
  </metadata>
  <defs
     id="defs5861" />
  <sodipodi:namedview
     pagecolor="#ffffff"
     bordercolor="#666666"
     borderopacity="1"
     objecttolerance="10"
     gridtolerance="10"
     guidetolerance="10"
     inkscape:pageopacity="0"
     inkscape:pageshadow="2"
     inkscape:window-width="1920"
     inkscape:window-height="1001"
     id="namedview5859"
     showgrid="false"
     fit-margin-top="0"
     fit-margin-left="0"
     fit-margin-right="0"
     fit-margin-bottom="0"
     inkscape:zoom="20.491546"
     inkscape:cx="17.964348"
     inkscape:cy="19.715449"
     inkscape:window-x="-9"
     inkscape:window-y="-9"
     inkscape:window-maximized="1"
     inkscape:current-layer="svg5857" />
  <title
     id="title5832">Bundeswappen Deutschlands</title>
  <g
     id="g5877"
     transform="scale(0.07185739,0.06065761)">
    <path
       id="path5834"
       d="m 25,25 v 4275 c 0,1930 1953,1308 2475,2153 522,-845 2475,-223 2475,-2153 V 25 Z"
       inkscape:connector-curvature="0"
       style="fill:#ffcc00;stroke:#000000;stroke-width:50" />
    <g
       id="g5840"
       stroke-miterlimit="5"
       style="fill:#dd0000;stroke:#000000;stroke-width:40;stroke-miterlimit:5">
      <path
         id="path5836"
         d="m 2490,734 c -247,-6 -458,-4 -709,-146 132,200 443,254 712,248"
         inkscape:connector-curvature="0" />
      <path
         id="path5838"
         d="m 2350,285 c -233,-204 -590,-98 -359,308 150,-122 279,19 329,144 -94,49 -232,74 -367,64 175,123 384,95 564,-3"
         inkscape:connector-curvature="0" />
    </g>
    <g
       id="r">
      <path
         id="path5842"
         d="M 260,5050 V 1100 h 275 v 3950 h 80 V 1750 h 275 v 3300 h 80 V 2050 h 275 v 3000 h 80 V 2150 h 275 v 2900 h 80 V 2150 h 275 v 2900"
         inkscape:connector-curvature="0" />
      <path
         id="path5844"
         d="M 2500,3150 V 5064 H 219"
         inkscape:connector-curvature="0"
         style="fill:#ffcc00" />
      <path
         id="path5846"
         stroke-miterlimit="5"
         d="m 1813,4108 -492,613 -378,-170 -123,113 -13,222 134,-136 10,-192 -10,192 329,54 -480,282 99,290 35,-244 -125,-55 218,96 306,-292 -13,583 201,90 -86,-189 -108,-7 196,12 -104,-510 363,187 121,-133 -121,131 10,177 138,-163 -8,-148 -475,-133 585,-542"
         inkscape:connector-curvature="0"
         style="fill:#dd0000;stroke:#000000;stroke-width:40;stroke-miterlimit:5" />
      <path
         id="path5848"
         d="M 2700,1865 C 552,1865 559,1050 783,759 985,1053 1407,917 1470,640 1071,25 530,583 255,405 c 25,97 93,197 190,235 -87,88 -185,202 -185,460 0,847 876,1165 1728,1254 27,316 85,741 191,1146.5 l -726,792 402,-79.5 -12,532 337,-505.5 C 2180,5445 1848,5550 1573,5452 c 32,225 445,319 642,159 l 285,316"
         inkscape:connector-curvature="0" />
    </g>
    <use
       id="use5851"
       transform="matrix(-1,0,0,1,5000,0)"
       xlink:href="#r"
       x="0"
       y="0"
       width="100%"
       height="100%" />
    <path
       id="path5853"
       d="m 1970,1996 c 0,-722 392,-693 354,-1120 0,-52 134,-35 126,-92 -24,-156 -292,-510 -156,-612 136,-102 498,304 789,175 -59,88 -124,128 -233,160 296,838 255,1580 163,1810"
       inkscape:connector-curvature="0" />
    <path
       id="path5855"
       d="m 2326.8,267.7 c -8.7,-4.6 -18.2,-0.1 -16.2,16.5 6.8,55.8 30,96.7 53.7,138.3 8.7,15.2 19.7,24.7 40.1,9.8 27.6,-20.2 52.9,-44.1 72.7,-72 -55.8,-42.8 -61.8,-45.3 -103.6,55.1 -4.9,-40.7 -3,-84 5.8,-119.5"
       inkscape:connector-curvature="0"
       style="fill:#ffffff" />
  </g>
</svg>
