<?xml version="1.0" encoding="UTF-8" standalone="no"?>
<svg xmlns:dc="http://purl.org/dc/elements/1.1/" xmlns:cc="http://creativecommons.org/ns#" xmlns:rdf="http://www.w3.org/1999/02/22-rdf-syntax-ns#" xmlns:svg="http://www.w3.org/2000/svg" xmlns="http://www.w3.org/2000/svg" xmlns:sodipodi="http://sodipodi.sourceforge.net/DTD/sodipodi-0.dtd" xmlns:inkscape="http://www.inkscape.org/namespaces/inkscape" id="svg80" viewBox="0 0 7500958.4 9966588.6" style="clip-rule:evenodd;fill-rule:evenodd;image-rendering:optimizeQuality;shape-rendering:geometricPrecision;text-rendering:geometricPrecision" version="1.1" height="99.665878mm" width="75.009583mm" xml:space="preserve" sodipodi:docname="stit.svg" inkscape:version="0.92.3 (2405546, 2018-03-11)"><sodipodi:namedview pagecolor="#ffffff" bordercolor="#666666" borderopacity="1" objecttolerance="10" gridtolerance="10" guidetolerance="10" inkscape:pageopacity="0" inkscape:pageshadow="2" inkscape:window-width="1920" inkscape:window-height="1017" id="namedview52" showgrid="false" fit-margin-top="0" fit-margin-left="0" fit-margin-right="0" fit-margin-bottom="0" inkscape:zoom="2.2511884" inkscape:cx="141.75039" inkscape:cy="188.34497" inkscape:window-x="-8" inkscape:window-y="-8" inkscape:window-maximized="1" inkscape:current-layer="svg80"/><metadata id="metadata84"><rdf:RDF><cc:Work rdf:about=""><dc:format>image/svg+xml</dc:format><dc:type rdf:resource="http://purl.org/dc/dcmitype/StillImage"/><dc:title/></cc:Work></rdf:RDF></metadata>
 <defs id="defs50">
  <style id="style48" type="text/css">
   <![CDATA[
    .str0 {stroke:#373435;stroke-width:26460;stroke-linejoin:round;stroke-miterlimit:22.9256}
    .fil0 {fill:none}
    .fil4 {fill:#FEFEFE}
    .fil3 {fill:#FEFEFE;fill-rule:nonzero}
    .fil2 {fill:#373435;fill-rule:nonzero}
    .fil1 {fill:#D9464E;fill-rule:nonzero}
   ]]>
  </style>
 </defs>
 <g transform="matrix(0.49076615,0,0,0.49076615,-2900016.5,-5085333.3)" id="Layer_x0020_1">
  <metadata id="CorelCorpID_0Corel-Layer"/>
  
  <g transform="matrix(5.0107631,0,0,5.0107631,-40539961,-49484220)" id="g99"><g id="_2258992595168">
   <g id="g58">
    <path style="fill:#c7363d;fill-opacity:1;fill-rule:nonzero" class="fil1" d="m 12295000,11970000 v 2425010 90 c -20,433660 -168470,827370 -440170,1112670 -271720,285310 -646710,462220 -1059790,462230 h -40 -80 c -413040,-20 -788010,-176910 -1059720,-462200 -271720,-285310 -440190,-679060 -440190,-1112750 v -40 -2425010 z" id="path55" inkscape:connector-curvature="0"/>
    <path style="fill:#21231e;fill-opacity:1;fill-rule:nonzero" id="1" class="fil2" d="m 12269860,14395010 v -2425010 h 50280 v 2425010 0 z m 0,90 v -90 h 50280 v 90 0 z m -397280,1131400 -35500,-37460 v 0 l 24750,-26610 24140,-27230 23520,-27820 22900,-28420 22250,-28980 21600,-29550 20930,-30100 20260,-30640 19560,-31170 18860,-31670 18150,-32180 17440,-32670 16680,-33130 15950,-33600 15180,-34060 14420,-34500 13620,-34910 12840,-35330 12020,-35750 11220,-36120 10380,-36500 9550,-36870 8670,-37220 7830,-37570 6950,-37890 6060,-38200 5160,-38520 4240,-38810 3340,-39090 2390,-39350 1440,-39620 480,-39860 h 50280 l -500,41220 -1500,40960 -2470,40710 -3440,40430 -4400,40130 -5340,39840 -6260,39540 -7190,39190 -8090,38870 -8990,38500 -9870,38150 -10740,37760 -11600,37380 -12440,36970 -13280,36550 -14100,36130 -14920,35680 -15700,35220 -16490,34760 -17260,34270 -18020,33770 -18770,33280 -19500,32750 -20240,32230 -20940,31680 -21650,31120 -22320,30550 -23010,29960 -23660,29380 -24320,28760 -24960,28150 z m -1077540,469960 v -52920 0 l 37970,-510 37750,-1520 37490,-2500 37230,-3490 36970,-4470 36700,-5420 36390,-6360 36100,-7300 35790,-8210 35450,-9130 35130,-10020 34770,-10900 34400,-11780 34050,-12630 33650,-13480 33280,-14320 32840,-15130 32450,-15950 32000,-16740 31570,-17530 31110,-18300 30650,-19070 30170,-19810 29690,-20540 29170,-21270 28680,-21990 28140,-22680 27610,-23360 27060,-24050 26500,-24700 25930,-25350 25350,-25990 35500,37460 -26190,26870 -26810,26210 -27400,25540 -27980,24850 -28530,24160 -29100,23440 -29640,22730 -30170,21990 -30690,21240 -31190,20490 -31690,19710 -32170,18920 -32650,18130 -33100,17320 -33550,16490 -33980,15650 -34400,14800 -34810,13940 -35210,13070 -35600,12180 -35970,11280 -36330,10360 -36670,9450 -37010,8490 -37340,7560 -37650,6580 -37940,5600 -38230,4610 -38510,3610 -38770,2600 -39010,1560 z m -40,-52920 h 40 v 52920 h -40 v 0 z m -80,0 h 80 v 52920 h -80 v 0 z m -1077470,-417010 35500,-37460 v 0 l 25340,25990 25930,25340 26510,24700 27050,24050 27610,23360 28150,22680 28670,21980 29180,21270 29680,20550 30170,19800 30650,19070 31110,18300 31560,17530 32000,16730 32440,15950 32850,15140 33270,14310 33650,13490 34040,12620 34410,11780 34780,10900 35110,10020 35450,9120 35790,8220 36090,7290 36400,6380 36680,5410 36970,4470 37230,3490 37500,2500 37730,1520 37970,510 v 52920 l -39250,-530 -39010,-1560 -38760,-2600 -38510,-3610 -38230,-4610 -37940,-5610 -37640,-6580 -37330,-7550 -37010,-8500 -36670,-9440 -36330,-10360 -35960,-11280 -35590,-12180 -35220,-13060 -34810,-13950 -34390,-14790 -33990,-15660 -33540,-16490 -33100,-17310 -32640,-18130 -32170,-18920 -31690,-19710 -31190,-20480 -30680,-21250 -30180,-21990 -29630,-22720 -29090,-23440 -28550,-24160 -27970,-24850 -27390,-25540 -26810,-26200 z m -447580,-1131480 h 50280 v 0 l 480,39860 1440,39620 2390,39370 3330,39090 4240,38810 5160,38520 6060,38210 6950,37890 7820,37560 8690,37230 9540,36870 10380,36510 11220,36120 12030,35750 12830,35330 13630,34930 14410,34490 15190,34060 15940,33600 16690,33140 17440,32680 18150,32170 18870,31680 19560,31170 20260,30640 20930,30100 21600,29550 22250,28990 22890,28400 23540,27840 24140,27230 24750,26610 -35500,37460 -25590,-27510 -24960,-28150 -24320,-28760 -23670,-29380 -23010,-29970 -22320,-30550 -21650,-31120 -20940,-31680 -20240,-32230 -19510,-32760 -18770,-33270 -18020,-33780 -17270,-34280 -16480,-34760 -15710,-35220 -14910,-35690 -14110,-36130 -13270,-36550 -12450,-36970 -11600,-37380 -10740,-37770 -9860,-38150 -8990,-38510 -8100,-38860 -7190,-39210 -6260,-39530 -5340,-39840 -4400,-40150 -3430,-40430 -2470,-40710 -1500,-40960 z m 50280,-40 v 40 h -50280 v -40 0 z m 0,-2425010 v 2425010 h -50280 v -2425010 l 25140,-26460 z m -50280,0 v -26460 h 25140 z m 3025130,26460 H 9295010 v -52920 h 2999990 l 25140,26460 z m 0,-52920 h 25140 v 26460 z" inkscape:connector-curvature="0"/>
   </g>
   <g id="g64">
    <path style="fill:#fefefe;fill-rule:nonzero" class="fil3" d="m 12295000,13457500 v 625000 h -1187490 v 1852960 c -100830,22580 -205380,34540 -312470,34540 h -40 -80 c -107080,-10 -211590,-11950 -312410,-34540 V 14082500 H 9295010 v -625000 h 1187500 v -1487500 h 625000 v 1487500 z" id="path60" inkscape:connector-curvature="0"/>
    <path style="fill:#21231e;fill-opacity:1;fill-rule:nonzero" id="path62" class="fil2" d="m 12282430,14082500 v -625000 h 25140 v 625000 l -12570,13230 z m 25140,0 v 13230 h -12570 z m -1200060,-13230 h 1187490 v 26460 h -1187490 l -12570,-13230 z m -12570,13230 v -13230 h 12570 z m 0,1852960 v -1852960 h 25140 v 1852960 l -9950,12940 z m 25140,0 v 10710 l -9950,2230 z m -325040,47770 v -26460 0 l 9950,-30 9930,-110 9920,-170 9910,-250 9890,-300 9860,-380 9860,-450 9830,-510 9830,-590 9810,-640 9790,-730 9770,-770 9750,-850 9740,-920 9720,-990 9700,-1040 9690,-1120 9650,-1170 9650,-1250 9630,-1310 9610,-1360 9580,-1440 9570,-1510 9560,-1570 9520,-1620 9510,-1700 9500,-1750 9460,-1820 9440,-1880 9440,-1950 9400,-2000 9380,-2070 5240,25880 -9540,2110 -9580,2040 -9580,1970 -9600,1920 -9640,1840 -9640,1790 -9670,1720 -9700,1660 -9700,1590 -9730,1530 -9760,1460 -9770,1400 -9790,1330 -9810,1270 -9830,1190 -9850,1140 -9860,1060 -9880,990 -9900,940 -9930,870 -9930,790 -9950,730 -9970,660 -9990,590 -10010,530 -10020,450 -10040,380 -10050,320 -10070,250 -10080,170 -10110,110 z m -40,-26460 h 40 v 26460 h -40 v 0 z m -80,0 h 80 v 26460 h -80 v 0 z m -324980,-21310 h 25140 l -9950,-12940 9380,2070 9400,2000 9430,1950 9440,1880 9480,1820 9480,1760 9510,1690 9520,1630 9550,1560 9580,1510 9570,1440 9610,1360 9630,1310 9640,1250 9660,1180 9680,1110 9700,1040 9720,990 9730,920 9750,840 9770,780 9790,720 9810,650 9810,590 9840,500 9860,450 9870,390 9880,300 9900,240 9920,180 9930,100 9950,40 v 26460 l -10110,-40 -10110,-100 -10080,-180 -10060,-240 -10060,-320 -10030,-390 -10020,-450 -10000,-520 -9990,-590 -9970,-670 -9950,-720 -9930,-800 -9930,-860 -9890,-940 -9880,-990 -9860,-1060 -9840,-1130 -9840,-1200 -9800,-1270 -9790,-1330 -9770,-1400 -9750,-1460 -9720,-1530 -9710,-1580 -9700,-1670 -9670,-1710 -9640,-1800 -9620,-1840 -9620,-1920 -9570,-1970 -9580,-2040 -9540,-2110 z m 9950,12940 -9950,-2230 v -10710 z m 15190,-1865900 v 1852960 h -25140 v -1852960 l 12570,-13230 z m -12570,-13230 h 12570 v 13230 z m -1187500,0 h 1187500 v 26460 H 9295010 l -12570,-13230 z m 0,26460 h -12570 v -13230 z m 12570,-638230 v 625000 h -25140 v -625000 l 12570,-13230 z m -25140,0 v -13230 h 12570 z m 1200070,13230 H 9295010 v -26460 h 1187500 l 12570,13230 z m 12570,-13230 v 13230 h -12570 z m 0,-1487500 v 1487500 h -25140 v -1487500 l 12570,-13230 z m -25140,0 v -13230 h 12570 z m 637570,13230 h -625000 v -26460 h 625000 l 12570,13230 z m 0,-26460 h 12570 v 13230 z m -12570,1500730 v -1487500 h 25140 v 1487500 l -12570,13230 z m 12570,13230 h -12570 v -13230 z m 1187490,0 h -1187490 v -26460 h 1187490 l 12570,13230 z m 0,-26460 h 12570 v 13230 z" inkscape:connector-curvature="0"/>
   </g>
   <path style="fill:#fefefe;stroke:#21231e;stroke-width:26460;stroke-linejoin:round;stroke-miterlimit:22.92560005;stroke-opacity:1" class="fil4 str0" d="m 10280040,12324430 v 878640 c -191550,51430 -657970,237200 -682240,-170070 -11220,-188260 233630,-312450 299660,-146150 31250,78700 -2790,134440 -48820,152430 -49740,19420 -99090,-20770 -85900,-80650 -198270,103590 177140,323530 346660,37270 49360,-83360 -83330,-170260 -83500,-232090 -170,-61830 130370,-154400 83500,-232210 -171640,-284890 -544930,-66320 -346660,37270 -13190,-59880 36160,-100070 85900,-80650 46030,17990 80070,73730 48820,152430 -66030,166300 -310880,42110 -299660,-146150 24270,-407270 490690,-221500 682240,-170070 z" id="path66" inkscape:connector-curvature="0"/>
   <path style="fill:#fefefe;stroke:#21231e;stroke-width:26460;stroke-linejoin:round;stroke-miterlimit:22.92560005;stroke-opacity:1" class="fil4 str0" d="m 11309980,12324430 v 878640 c 191550,51430 657970,237200 682240,-170070 11220,-188260 -233630,-312450 -299660,-146150 -31250,78700 2790,134440 48820,152430 49740,19420 99090,-20770 85900,-80650 198270,103590 -177140,323530 -346660,37270 -49360,-83360 83330,-170260 83500,-232090 170,-61830 -130370,-154400 -83500,-232210 171640,-284890 544930,-66320 346660,37270 13190,-59880 -36160,-100070 -85900,-80650 -46030,17990 -80070,73730 -48820,152430 66030,166300 310880,42110 299660,-146150 -24270,-407270 -490690,-221500 -682240,-170070 z" id="path68" inkscape:connector-curvature="0"/>
   <path style="fill:#fefefe;stroke:#21231e;stroke-width:26460;stroke-linejoin:round;stroke-miterlimit:22.92560005;stroke-opacity:1" class="fil4 str0" d="m 10280040,15215570 v -878640 c -191550,-51430 -657970,-237200 -682240,170070 -11220,188260 233630,312450 299660,146150 31250,-78700 -2790,-134440 -48820,-152430 -49740,-19420 -99090,20770 -85900,80650 -198270,-103590 177140,-323530 346660,-37270 49360,83360 -83330,170260 -83500,232090 -170,61830 130370,154400 83500,232210 -171640,284890 -544930,66320 -346660,-37270 -13190,59880 36160,100070 85900,80650 46030,-17990 80070,-73730 48820,-152430 -66030,-166300 -310880,-42110 -299660,146150 24270,407270 490690,221500 682240,170070 z" id="path70" inkscape:connector-curvature="0"/>
   <path style="fill:#fefefe;stroke:#21231e;stroke-width:26460;stroke-linejoin:round;stroke-miterlimit:22.92560005;stroke-opacity:1" class="fil4 str0" d="m 11309980,15215570 v -878640 c 191550,-51430 657970,-237200 682240,170070 11220,188260 -233630,312450 -299660,146150 -31250,-78700 2790,-134440 48820,-152430 49740,-19420 99090,20770 85900,80650 198270,-103590 -177140,-323530 -346660,-37270 -49360,83360 83330,170260 83500,232090 170,61830 -130370,154400 -83500,232210 171640,284890 544930,66320 346660,-37270 13190,59880 -36160,100070 -85900,80650 -46030,-17990 -80070,-73730 -48820,-152430 66030,-166300 310880,-42110 299660,146150 -24270,407270 -490690,221500 -682240,170070 z" id="path72" inkscape:connector-curvature="0"/>
   <g id="g76">
    <path style="fill:#21231e;fill-opacity:1;fill-rule:nonzero" class="fil2" d="m 12269860,14395010 v -2425010 h 50280 v 2425010 0 z m 0,90 v -90 h 50280 v 90 0 z m -397280,1131400 -35500,-37460 v 0 l 24750,-26610 24140,-27230 23520,-27820 22900,-28420 22250,-28980 21600,-29550 20930,-30100 20260,-30640 19560,-31170 18860,-31670 18150,-32180 17440,-32670 16680,-33130 15950,-33600 15180,-34060 14420,-34500 13620,-34910 12840,-35330 12020,-35750 11220,-36120 10380,-36500 9550,-36870 8670,-37220 7830,-37570 6950,-37890 6060,-38200 5160,-38520 4240,-38810 3340,-39090 2390,-39350 1440,-39620 480,-39860 h 50280 l -500,41220 -1500,40960 -2470,40710 -3440,40430 -4400,40130 -5340,39840 -6260,39540 -7190,39190 -8090,38870 -8990,38500 -9870,38150 -10740,37760 -11600,37380 -12440,36970 -13280,36550 -14100,36130 -14920,35680 -15700,35220 -16490,34760 -17260,34270 -18020,33770 -18770,33280 -19500,32750 -20240,32230 -20940,31680 -21650,31120 -22320,30550 -23010,29960 -23660,29380 -24320,28760 -24960,28150 z m -1077540,469960 v -52920 0 l 37970,-510 37750,-1520 37490,-2500 37230,-3490 36970,-4470 36700,-5420 36390,-6360 36100,-7300 35790,-8210 35450,-9130 35130,-10020 34770,-10900 34400,-11780 34050,-12630 33650,-13480 33280,-14320 32840,-15130 32450,-15950 32000,-16740 31570,-17530 31110,-18300 30650,-19070 30170,-19810 29690,-20540 29170,-21270 28680,-21990 28140,-22680 27610,-23360 27060,-24050 26500,-24700 25930,-25350 25350,-25990 35500,37460 -26190,26870 -26810,26210 -27400,25540 -27980,24850 -28530,24160 -29100,23440 -29640,22730 -30170,21990 -30690,21240 -31190,20490 -31690,19710 -32170,18920 -32650,18130 -33100,17320 -33550,16490 -33980,15650 -34400,14800 -34810,13940 -35210,13070 -35600,12180 -35970,11280 -36330,10360 -36670,9450 -37010,8490 -37340,7560 -37650,6580 -37940,5600 -38230,4610 -38510,3610 -38770,2600 -39010,1560 z m -40,-52920 h 40 v 52920 h -40 v 0 z m -80,0 h 80 v 52920 h -80 v 0 z m -1077470,-417010 35500,-37460 v 0 l 25340,25990 25930,25340 26510,24700 27050,24050 27610,23360 28150,22680 28670,21980 29180,21270 29680,20550 30170,19800 30650,19070 31110,18300 31560,17530 32000,16730 32440,15950 32850,15140 33270,14310 33650,13490 34040,12620 34410,11780 34780,10900 35110,10020 35450,9120 35790,8220 36090,7290 36400,6380 36680,5410 36970,4470 37230,3490 37500,2500 37730,1520 37970,510 v 52920 l -39250,-530 -39010,-1560 -38760,-2600 -38510,-3610 -38230,-4610 -37940,-5610 -37640,-6580 -37330,-7550 -37010,-8500 -36670,-9440 -36330,-10360 -35960,-11280 -35590,-12180 -35220,-13060 -34810,-13950 -34390,-14790 -33990,-15660 -33540,-16490 -33100,-17310 -32640,-18130 -32170,-18920 -31690,-19710 -31190,-20480 -30680,-21250 -30180,-21990 -29630,-22720 -29090,-23440 -28550,-24160 -27970,-24850 -27390,-25540 -26810,-26200 z m -447580,-1131480 h 50280 v 0 l 480,39860 1440,39620 2390,39370 3330,39090 4240,38810 5160,38520 6060,38210 6950,37890 7820,37560 8690,37230 9540,36870 10380,36510 11220,36120 12030,35750 12830,35330 13630,34930 14410,34490 15190,34060 15940,33600 16690,33140 17440,32680 18150,32170 18870,31680 19560,31170 20260,30640 20930,30100 21600,29550 22250,28990 22890,28400 23540,27840 24140,27230 24750,26610 -35500,37460 -25590,-27510 -24960,-28150 -24320,-28760 -23670,-29380 -23010,-29970 -22320,-30550 -21650,-31120 -20940,-31680 -20240,-32230 -19510,-32760 -18770,-33270 -18020,-33780 -17270,-34280 -16480,-34760 -15710,-35220 -14910,-35690 -14110,-36130 -13270,-36550 -12450,-36970 -11600,-37380 -10740,-37770 -9860,-38150 -8990,-38510 -8100,-38860 -7190,-39210 -6260,-39530 -5340,-39840 -4400,-40150 -3430,-40430 -2470,-40710 -1500,-40960 z m 50280,-40 v 40 h -50280 v -40 0 z m 0,-2425010 v 2425010 h -50280 v -2425010 l 25140,-26460 z m -50280,0 v -26460 h 25140 z m 3025130,26460 H 9295010 v -52920 h 2999990 l 25140,26460 z m 0,-52920 h 25140 v 26460 z" id="path74" inkscape:connector-curvature="0"/>
   </g>
  </g></g>
 </g>
</svg>